<?xml version="1.0" standalone="no"?>
<!DOCTYPE svg PUBLIC "-//W3C//DTD SVG 20010904//EN"
 "http://www.w3.org/TR/2001/REC-SVG-20010904/DTD/svg10.dtd">
<svg version="1.0" xmlns="http://www.w3.org/2000/svg"
 width="300.000000pt" height="300.000000pt" viewBox="0 0 300.000000 300.000000"
 preserveAspectRatio="xMidYMid meet">
<metadata>
Created by potrace 1.11, written by Peter Selinger 2001-2013
</metadata>
<g transform="translate(0.000000,300.000000) scale(0.100000,-0.100000)"
fill="#000000" stroke="none">
<path d="M504 2980 c-410 -107 -621 -557 -438 -935 114 -235 337 -375 599
-375 189 0 336 61 470 195 134 134 195 281 195 470 0 162 -44 289 -145 418
-155 196 -438 291 -681 227z"/>
<path d="M2062 2840 c-176 -46 -308 -168 -368 -339 -31 -88 -33 -230 -4 -323
39 -126 143 -249 260 -308 210 -106 447 -68 610 99 202 206 201 529 -1 732
-71 71 -147 114 -245 139 -95 25 -158 25 -252 0z"/>
<path d="M2075 1614 c-321 -52 -577 -279 -667 -591 -30 -101 -32 -312 -4 -413
57 -211 213 -412 397 -510 442 -235 985 -27 1151 442 92 259 41 562 -131 774
-101 126 -272 238 -426 279 -60 16 -263 28 -320 19z"/>
<path d="M565 1176 c-104 -33 -192 -107 -242 -206 -25 -49 -28 -65 -28 -155 0
-89 3 -107 29 -163 37 -80 122 -161 203 -193 44 -17 79 -23 143 -23 75 0 93 4
152 31 262 123 300 478 69 647 -91 67 -228 93 -326 62z"/>
</g>
</svg>
